<?xml version="1.0" encoding="UTF-8"?>
<svg id="Layer_2" data-name="Layer 2" xmlns="http://www.w3.org/2000/svg" viewBox="0 0 72.13 75.79">
  <defs>
    <style>
      .cls-1 {
        fill: #f0efef;
      }
    </style>
  </defs>
  <g id="Layer_1-2" data-name="Layer 1">
    <polygon class="cls-1" points="72.13 0 72.13 52.57 44.41 75.79 27.73 75.79 .01 52.57 .01 41.48 30.82 67.29 41.32 67.29 63.63 48.6 63.63 0 72.13 0"/>
    <polygon class="cls-1" points="56.23 0 56.23 45.13 44.3 55.13 38.62 59.89 33.51 59.89 25.05 52.8 0 31.82 0 20.73 36.06 50.93 47.73 41.16 47.73 0 56.23 0"/>
    <polygon class="cls-1" points="40.32 0 40.32 37.71 36.06 41.28 31.82 37.73 .01 11.08 0 4.66 0 0 4.67 3.91 31.82 26.64 31.82 0 40.32 0"/>
    <polygon class="cls-1" points="24.42 0 24.42 10.79 11.54 0 24.42 0"/>
  </g>
</svg>